<svg xmlns="http://www.w3.org/2000/svg" viewBox="0 0 566.93 170.08"><defs><style>.cls-1,.cls-2{fill:#fff;}.cls-2,.cls-3,.cls-4{stroke:#fff;stroke-miterlimit:10;}.cls-2{stroke-width:0.25px;}.cls-3,.cls-4{fill:none;stroke-linecap:round;}.cls-3{stroke-width:0.75px;}</style></defs><g id="Layer_3" data-name="Layer 3"><path class="cls-1" d="M325.44,130.17V71.58q0-15.4,9.23-24.66t24.57-9.26q15.27,0,23.37,9t8.1,25.86v57.66H363.87V72.51q0-8.26-5.89-8.27-5.69,0-5.69,8.27v57.66Z"/><path class="cls-1" d="M474.83,82.43v24.2H465.9v23.54H439.05v-56q0-15.81,9.76-26.15t24.56-10.35q16.33,0,27.32,14.08l-22,16.07q-1.85-5.16-6.54-5.16-6.22,0-6.22,8.6V82.43Z"/><path class="cls-1" d="M533,39.91v90.26H506.11V39.91Z"/><path class="cls-1" d="M126.37,130.17Q113.6,110.22,113.58,85q0-21.89,9.48-39.63v0q-6.48-7.66-18.65-7.67A26,26,0,0,0,91.5,40.6q-5.22,2.94-9.78,9.82Q74.24,37.65,60.36,37.66q-11.72,0-19,7.67T34,65.1v65.07H60.82V71.45q0-7.22,4-7.21a2.86,2.86,0,0,1,2.84,1.46c.49,1,.73,2.88.73,5.75v58.72H95.21V71q0-6.75,4-6.75A2.83,2.83,0,0,1,102,65.66q.69,1.43.69,5.79v58.72Z"/><path class="cls-1" d="M301,51.61Q287.87,38.32,269.84,37.7,284,58.51,284,85q0,26.7-14,47.37a45.48,45.48,0,0,0,30.86-13.75A45.7,45.7,0,0,0,314.67,85,46,46,0,0,0,301,51.61Z"/><path class="cls-2" d="M200.4,27.22a10,10,0,0,0,1.56.19c1.64.16,3.33.41,3.82.35s4.57.81,5.81.95a8.59,8.59,0,0,1,2.7.66,3.5,3.5,0,0,0,1.93.61c.88,0,1.15.93,1.15.93s.77,0,1.38,0a5.77,5.77,0,0,1,1.65.55l2,.55a5.22,5.22,0,0,0,.49,1,2.29,2.29,0,0,0,1.33,1,7,7,0,0,0,1.21-.38s4,2,4.3,2.48a21.67,21.67,0,0,0,3,2.15,9.23,9.23,0,0,0,1.49.77c.22,0,.88.66.88.66s-.49.85,0,1.16a2.22,2.22,0,0,0,1.11.27l.44.61s.58-.17.71,0a8.35,8.35,0,0,0,1,.66v1.82a2,2,0,0,0,1,.41c.48,0,1.16.66,1.16.66l.87.87s2.15,2.23,1.57,1.94,1.32,1.66,1.32,1.66l1.24,1.49,1.24,1.65,1.16,1.57v1.32l1.24.75.91,1.24s.62,1.53.66,1.73.49,1.57.49,1.57l.67,1.33.82,1.07.42,2.07.33,1.4.91,2,.74,1.57a7.17,7.17,0,0,0,0,1.32,19.17,19.17,0,0,1,0,2.15,12.15,12.15,0,0,0,.91,1c.33.29,0,1.82,0,1.82l.15,1.49a8.74,8.74,0,0,1,.51,1.32V81.2a3.69,3.69,0,0,1,0,1.16,10.69,10.69,0,0,0-.33,1.49l.39,1.07v2.81a4.5,4.5,0,0,0-.47,1c0,.2.08,1.65.08,1.65V92.2l-.08,2.06-.33,1.08-.5,1.24s-.33,1.73-.33,2a5.82,5.82,0,0,1-.14.85l-.18-.56.17-.57s-.08.09-.1-.49a8,8,0,0,1,.2-1.49l.24-.77.55-1.32a7.52,7.52,0,0,1-.13-1c0-.08.24-1.6.24-1.6s-.11-.77-.16-.93-.19-1.44-.19-1.44l.24-1.57s.05-1,0-1.32-.05-1.93-.05-1.93l.13-2,.2-1.79-.77-2.37v-2l-1.44-2.31V71.36l-1-2.48L252,64.59a7.1,7.1,0,0,1-2.37-2.93c-.6-1.7-1-3.21-1-3.32s-1.24-1.22-2.35-2.35-1.18-2.44-1.7-3.18a10.53,10.53,0,0,0-2.89-2.61,18.46,18.46,0,0,1-4.08-3.47A22.2,22.2,0,0,0,232.86,42c-2.23-1.54-3.53-2.32-3.53-2.32l-2.2-2.2a8.36,8.36,0,0,0-2.15-1A25.86,25.86,0,0,1,220.85,34l-3.31-2-4.74-1s-1.71-1.43-2.76-1.32-4,.5-4.63.22a24.81,24.81,0,0,0-3.74-.44c-.33-.06-3.54-.22-3.62,0a25.66,25.66,0,0,1-5.2.44c-.39-.11-2.21.11-3.53.11a12,12,0,0,0-4,.88c-.44.28-2.64,1.66-3.41,1.43s-1.93.78-2.76,1.22A24.93,24.93,0,0,1,175.54,35a13.24,13.24,0,0,0-2.64,1.54c-.44.28-1.88.61-2.32.89a12.86,12.86,0,0,0-2.09,1.32c-.17.27-2.76,2.09-2.76,2.09l-2.42,1.44-1.55,1.87-2.86,2.42a14.61,14.61,0,0,0-1.54,1.77c-.22.44-1.77,2.53-1.77,2.53s-2,1.93-2,2.32-1.44,2.2-1.44,2.2-1,1-1,1.32A11.56,11.56,0,0,1,150.3,59s-1.6,1.6-1.54,2.09.14,1.44.14,1.44l-.84-1-1.18-.14h0l.33-1.21s.45-.82.89-1,1.1-1.32,1.1-1.32l.33-2.87s.94-.83,1.54-1.43l1.55-1.54,1.21-2,.66-1.43.88-1.43,1.77-1.33,2.09-1.32.11-1.1s1.87-1.82,2.2-1.77S163.42,40,163.42,40l1.43-1.76a4.84,4.84,0,0,1,1.21-.66,16.27,16.27,0,0,0,2.21-.56c.27-.11.88-1.32.88-1.32l1.21-.77,2.87-.44,2-1.65,1.32-1.33s2.32.22,2.65.22a12.53,12.53,0,0,0,2.09-1l1.22-.88,2.64-.44,2.1-.55,2.53-.88,1.21.55,3-.55h3.53l1.1-.72Z"/><path class="cls-2" d="M143.29,72.63c0,.21.83.93.83.93l.49.25-.57.57v.91a7.78,7.78,0,0,1,0,1.28c-.06.13-.29,1.3-.33,1.49a5.92,5.92,0,0,0-.24,1.12,8.85,8.85,0,0,1-.33,1.48,3.5,3.5,0,0,0,0,1.33c.12.12-.22,1.05-.07,1.2a13.26,13.26,0,0,1,.23,2.31,8.68,8.68,0,0,1-.27,1.08,7.59,7.59,0,0,0,.19,1.69l.22,1.42s-.12.91-.14,1.18-.05,1-.08,1.3a3.35,3.35,0,0,0,.27,1.13,10.52,10.52,0,0,1,.2,1.35l.69,2.51v1a6.41,6.41,0,0,0,.41,1.53,3.63,3.63,0,0,1,.66,1.32c0,.19.31,1.49.33,1.69a10.61,10.61,0,0,0,.37,1.62,3.78,3.78,0,0,1,.33,1.2c0,.16.48.7.54.86s.39.91.42,1.08a4,4,0,0,0,.28,1c.13.19.67.79.67,1.24a1,1,0,0,0,.37.74l.74,1.2s.27,1.12.46,1.16.64,1.61.78,1.65.73.29.75.67,1.36,1.65,1.36,1.65l.5,1.69s.47.27.57.5.85,1,.9,1.18,1.71,2.1,1.71,2.1a7.94,7.94,0,0,1,1.05,1.27c0,.24,1.24,1,1.32,1.26a8,8,0,0,0,1.49,1.16,21.77,21.77,0,0,0,1.48,1.93l2.21.83s1.18,1.65,1.27,1.87a33.26,33.26,0,0,0,3,2.09l2.86,1.11a12.35,12.35,0,0,1,1.71,1.37c0,.2,1.63.67,1.88.89s2,.82,2.2,1,3.56,1.21,3.56,1.21l3.22,1.32,3.8,1s4.8.66,5.21.74,4.63.33,4.88.33h5.37s5.54-1.12,6-1.07,4.46-.67,4.46-.67l2.65-1s2.64-1.32,3.22-1.49,5.29-2.31,5.29-2.31l3.06-1.9,2.81-.66,3.55-3,2-2.07,2-1.65,3-2.48,1-1.82a27.53,27.53,0,0,1,1.82-2.31c.29-.21,3-3.47,3-3.47s1.81-3.77,2-4,1.9-2.48,1.9-2.48l.91-2.4.19-.77.36.21s.11.82,0,.89a7.4,7.4,0,0,0-.33,1.38l-.72,1.51a10.63,10.63,0,0,1-.79,1.38,12.43,12.43,0,0,0-.78,1.68c0,.07-.3,1-.3,1l-.91,1.44-.71.33V117l-1.16,1.49-1.21,1.26-.61,1.16-.61.39-.49.27a4.17,4.17,0,0,1-.11.83,2.9,2.9,0,0,1-.5.55s-1.27.83-1.27,1-.52.91-.49,1a6.7,6.7,0,0,1-.44,1,12.18,12.18,0,0,1-1.38,1l-.5.33s-.91,0-1,.22-.56.17-.67.78a2.67,2.67,0,0,1-.33.93s-.33.75-.49.83-.58.17-.83.28-1.18.52-1.21.71l-.11.72-.5.6-.83.28-1.15.88a.59.59,0,0,0-.61,0,3.1,3.1,0,0,0-1,1c-.08.25-1,.93-1,.93a10,10,0,0,1-1.44.49c-.35,0-1.39,0-1.49,0s-1.94,1.08-1.94,1.08l-.5,1.16a5,5,0,0,1-1.07.37c-.31,0-1.78.25-1.78.25l-1.89,1.25-2.26,1.35c-.14.08-3,.22-3.19.25a24.58,24.58,0,0,0-2.76.88,29.06,29.06,0,0,1-3.2.44s-1.32-.49-1.71-.27-2.86.93-2.86.93l-3.2-.44-2.53.44a11.73,11.73,0,0,1-3-.71,8.16,8.16,0,0,0-1.65-.33c-.55,0-2-.22-2.15-.17a4.59,4.59,0,0,1-.66.11l-3.48-.63-4.79-.83s-2.48-1.69-2.89-1.9a39.49,39.49,0,0,0-4.3-1.57,11,11,0,0,1-2.81-.91c-.25-.25-2-2.15-2-2.15l-1.73-.91-2-.91-1.86-2.4-1.4-1-1.7-1a8.32,8.32,0,0,1-1-1,9.19,9.19,0,0,0-.79-1.2,10.61,10.61,0,0,1-.78-.87c-.06-.13-.79-.41-.79-.41l-.82-.38L156,123a11.55,11.55,0,0,0-1-1.28,4.7,4.7,0,0,1-1.24-.83c-.17-.23-.6-1.65-.79-1.78a7.09,7.09,0,0,1-.74-.9l-.66-.83-1.24-1.71-.52-1.76-.8-1.16s.22,0,.05-.31a18.66,18.66,0,0,0-1.27-1.4l-.74-1.6-.66-2.37s-.11-.6-.5-.77-1.1-2.42-1.1-2.42l-.66-1.77-.61-2.42-.38-2.34-.28-1.38.3-1.79-.13-.86-.47-.41-.47-.41L142,89.28l.47-.8,0-.72-.36-.69L142,85.75l.3-2-.3-1.66v-2s.61-2.62.64-2.76l.44-3s-.53-.72-.5-.89A5.47,5.47,0,0,1,143.29,72.63Z"/><line class="cls-3" x1="173.5" y1="35.12" x2="190.67" y2="35.12"/><path class="cls-1" d="M198.84,32.08l8.59-.18c1.43,0,2.86-.08,4.29,0s2.86.09,4.29.23c0,0,0,0,0,0a0,0,0,0,1,0,0c-1.43.14-2.86.18-4.29.22s-2.86,0-4.29-.05l-8.59-.17s0,0,0,0Z"/><path class="cls-1" d="M218.7,45.63l7.75-.18c1.29,0,2.58-.08,3.87-.05s2.58.09,3.88.23c0,0,0,0,0,0a0,0,0,0,1,0,0c-1.3.14-2.59.18-3.88.22s-2.58,0-3.87,0l-7.75-.17a0,0,0,0,1,0,0S218.68,45.63,218.7,45.63Z"/><path class="cls-1" d="M208.2,55.06l18.54-.17c3.09,0,6.17-.06,9.26,0s6.18.08,9.27.22a0,0,0,0,1,0,0s0,0,0,0c-3.09.14-6.18.18-9.27.23s-6.17,0-9.26-.05l-18.54-.18s0,0,0,0A0,0,0,0,1,208.2,55.06Z"/><path class="cls-1" d="M188.36,68.51l14.11-.17q3.54-.06,7.06,0c2.35,0,4.71.08,7.06.22,0,0,0,0,0,0l0,0c-2.35.15-4.71.18-7.06.23s-4.7,0-7.06-.05l-14.11-.18s0,0,0,0A0,0,0,0,1,188.36,68.51Z"/><path class="cls-1" d="M223.28,64.81l8.58-.18c1.43,0,2.86-.08,4.29,0s2.86.09,4.29.23c0,0,0,0,0,0l0,0c-1.43.14-2.86.18-4.29.22s-2.86,0-4.29,0l-8.58-.17s0,0,0,0A0,0,0,0,1,223.28,64.81Z"/><path class="cls-1" d="M254.93,70.29l-7.25.17c-1.21,0-2.41.09-3.62.05s-2.41-.08-3.62-.22c0,0,0,0,0,0a0,0,0,0,1,0,0c1.21-.15,2.41-.18,3.62-.23s2.41,0,3.62,0l7.25.18a0,0,0,0,1,0,0S254.94,70.29,254.93,70.29Z"/><path class="cls-1" d="M255.92,91.78q-3,.1-6,.18c-1,0-2,.08-3,.05s-2-.09-3-.23c0,0,0,0,0,0s0,0,0,0c1-.14,2-.18,3-.22s2,0,3,0q3,.06,6,.17a0,0,0,0,1,0,0S255.94,91.78,255.92,91.78Z"/><path class="cls-1" d="M223.28,136.86c-2,.08-4,.13-6,.18-1,0-2,.08-3,.05s-2-.08-3-.23c0,0,0,0,0,0l0,0c1-.14,2-.18,3-.22s2,0,3,0q3,.06,6,.17a0,0,0,0,1,0,0S223.3,136.86,223.28,136.86Z"/><path class="cls-1" d="M251.68,107.42l-22.07.17c-3.68,0-7.36.06-11,0s-7.36-.08-11-.22a0,0,0,0,1,0,0s0,0,0,0c3.67-.14,7.35-.18,11-.23s7.36,0,11,0l22.07.18s0,0,0,0A0,0,0,0,1,251.68,107.42Z"/><path class="cls-1" d="M241.46,115.78l-11.38.17c-1.9,0-3.8.08-5.69,0s-3.8-.08-5.69-.22t0,0s0,0,0,0c1.89-.15,3.79-.18,5.69-.23s3.79,0,5.69,0l11.38.18a0,0,0,0,1,0,0S241.47,115.78,241.46,115.78Z"/><line class="cls-3" x1="163.1" y1="41.69" x2="196.54" y2="41.69"/><line class="cls-3" x1="156.69" y1="48.27" x2="193.81" y2="48.27"/><line class="cls-4" x1="220.14" y1="76.66" x2="229.37" y2="76.66"/><line class="cls-4" x1="218.28" y1="80.35" x2="230.05" y2="80.35"/><line class="cls-4" x1="216.9" y1="83.19" x2="224.34" y2="83.19"/><line class="cls-4" x1="216.42" y1="86.91" x2="220.82" y2="86.91"/><line class="cls-4" x1="217.41" y1="90.63" x2="220.62" y2="90.63"/><line class="cls-4" x1="220.82" y1="94.57" x2="222.64" y2="94.57"/><line class="cls-3" x1="151.24" y1="55.09" x2="179.1" y2="55.09"/><line class="cls-3" x1="149.01" y1="61.91" x2="177.2" y2="61.91"/><line class="cls-3" x1="149.49" y1="68.54" x2="176.87" y2="68.54"/><line class="cls-3" x1="144.04" y1="74.88" x2="176.87" y2="74.88"/><line class="cls-3" x1="142.94" y1="81.99" x2="180.03" y2="81.99"/><line class="cls-3" x1="143.38" y1="88.64" x2="184.58" y2="88.64"/><line class="cls-3" x1="144.34" y1="95.11" x2="203.76" y2="95.11"/><line class="cls-3" x1="145.41" y1="101.59" x2="194.72" y2="101.59"/><line class="cls-3" x1="147.5" y1="108.53" x2="185.68" y2="108.53"/><line class="cls-3" x1="151.73" y1="115.75" x2="193.07" y2="115.75"/><line class="cls-3" x1="156.53" y1="122.14" x2="189.71" y2="122.14"/><line class="cls-3" x1="162.77" y1="128.54" x2="190.64" y2="128.54"/><line class="cls-3" x1="172.4" y1="135.56" x2="196.33" y2="135.56"/><path class="cls-1" d="M208,43.59c-.06,0-.94-1.21-.94-1.21s-.36-1-.37-1.11-.17-1.39-.17-1.39,0-.62,0-.78a6.83,6.83,0,0,1,.35-1.23c.13-.21.51-1,.56-1.06s1.1-1.45,1.21-1.48,1.22-.56,1.27-.58.81-.31,1.15-.4a15.19,15.19,0,0,1,2,0l1.59.16,1.36.33c.07,0,.7.55,1,.73a7,7,0,0,1,1,1.28,4.56,4.56,0,0,1,.42,1,5.56,5.56,0,0,1,.17,1.08c0,.3,0,1.77,0,1.77s-.26.57-.35.82a9,9,0,0,1-.5,1.06c-.07.12-1.23,1.26-1.23,1.26l-.15-.51.35-.29s.41-.5.46-.6.32-.89.35-.92.65-1.44.65-1.44-.06-1-.08-1.15l-.26-1.48s-.29-.66-.36-.75-.82-.63-.93-.73-1.25-.62-1.25-.62l-2.8-.38c-.12,0-1.8,0-1.88,0a20.79,20.79,0,0,0-2,.79,8.11,8.11,0,0,0-.63,1,13.26,13.26,0,0,0-.81,1.43,16.93,16.93,0,0,0-.31,2.1,8.46,8.46,0,0,0,.31.8c.06.12.31.78.41,1s.66,1.19.66,1.19Z"/><path class="cls-1" d="M209.77,37l-.29.19-.68.5s-.55.73-.56.8-.48,1.15-.48,1.26a4.49,4.49,0,0,0,0,1c.08.17.24,1.1.34,1.35a2.24,2.24,0,0,0,.44.76,3.05,3.05,0,0,0,.57.33,3.86,3.86,0,0,1,.81.42c.13.11.3.36.39.33a4.16,4.16,0,0,1,.9.2,10.38,10.38,0,0,0,1.28.13,6.75,6.75,0,0,0,1.19,0,5.25,5.25,0,0,1,.87-.15s1-.64,1.18-.74a2.9,2.9,0,0,0,.53-.66c.05-.13.6-1.07.68-1.24a4.53,4.53,0,0,1,.34-.81c.15-.21,0-1.11,0-1.11s-.17-.75-.21-.81-.73-1-.73-1a2.28,2.28,0,0,1-.32-.33,6.68,6.68,0,0,0-1.36-.77h-.61c.13.22.23.32.31.33a4.76,4.76,0,0,1,.57.13,1.1,1.1,0,0,1,.58.31,5.21,5.21,0,0,0,.55.53,5,5,0,0,1,.35.58l.18.48c0,.08.17.64.17.64s.07.26.09.41a3.43,3.43,0,0,1,.06.54,8.07,8.07,0,0,1-.24.82L216,42.58s0,.07-.22.24a7.67,7.67,0,0,1-1.18.64c-.22.09-1.4.4-1.4.4h-1a8,8,0,0,1-1.14-.17,1.63,1.63,0,0,0-.37-.29,8.82,8.82,0,0,1-1-.45c-.11-.12-.16-.13-.31-.31s-.6-.49-.75-.83a3.68,3.68,0,0,1-.37-.83,5.24,5.24,0,0,1-.08-.74c0-.44-.14-.59,0-.85s.36-.74.5-1a5.88,5.88,0,0,1,.59-.89c.07-.05.53-.25.53-.25L210,37Z"/><path class="cls-1" d="M213.38,85.14l-.5-1s-.16-.83,0-1a4.4,4.4,0,0,0,.5-.94v-.94s-.42-.12,0-.52,1.09-1,1.1-1.24-.4-.84-.25-1,.84-.73,1-.94.22-.68.33-.93a8.65,8.65,0,0,1,.63-.94l1.41-.91.35-.83.39-.38,1.24-1a11.08,11.08,0,0,0,1.32-.27c.07-.07,1.08-.91,1.08-.91l1.13-.61.88-.46s.63.14.67.13,1.89-.1,2-.13,1.09-.25,1.37-.31a3.69,3.69,0,0,1,.82,0,3.08,3.08,0,0,1,1-.09,2.08,2.08,0,0,1,.77.2c.05,0,2.89.84,2.89.84l1.78.62a1,1,0,0,1,.5.54c.08.35.7.39.86.66s1,.21,1.16.29.48.06.7.54,1.1.85,1.24,1.44-.1.85.38,1.08a5.93,5.93,0,0,0,1.24.37s.12,0,.2.62a7,7,0,0,0,.54,1.82,10.36,10.36,0,0,0,.79,1.49s.71,1.22,1,1.69a2.36,2.36,0,0,1,0,1.86c-.19.5.2,1.66.19,1.95s.2,0,0,1.11.08,1.14-.42,2.11-.54.95-1,1.65-1.28,2.57-1.28,2.57-1.72.6-1.7.82.69-.8.75-.91.87-1.71,1.07-2.15,1.08-2.35,1.08-2.35.06-3,0-3a2.69,2.69,0,0,1-.09-1.36c.11-.27.4-.56-.12-1.53s-.74-1.51-.87-1.78-.27-.46-.58-1.2a13.26,13.26,0,0,1-.45-1.61,5.41,5.41,0,0,0-.66-1.08c-.17-.16-.21,0-.54-.57s-.66-1-.83-1.24-.68-.91-.87-.83-1.07-.6-1.24-.83a2.82,2.82,0,0,0-.82-.7,12.89,12.89,0,0,1-1.28-.91l-2-.12-2.4-.33-.91-.34a4.25,4.25,0,0,0-1.07-.16c-.21.06-1.28.29-1.28.29a2.05,2.05,0,0,0-1.08.16c-.37.25-1.13.11-1.32.13a13.16,13.16,0,0,0-1.2.58,4.71,4.71,0,0,0-2,.45c-.73.48-1.1.5-1.12.62s-.41.95-.41.95-1.16.93-1.28,1.08-1.28,1-1.28,1a3.5,3.5,0,0,0-.42.78,6.91,6.91,0,0,1-.82,1.12s-.48.29-.42.49a9.6,9.6,0,0,1,.09,1.12s-.54.58-.71.79-.95,1-.87,1.19.5,1.29.5,1.29l-.33,1.15Z"/><path class="cls-1" d="M218.28,78.27l.87-1.41a3.06,3.06,0,0,1,.58-.41,3.24,3.24,0,0,0,.91-.79,4.31,4.31,0,0,1,.37-.58,11.25,11.25,0,0,0,1.49-.7c.35-.25.52-.23.78-.49a10.1,10.1,0,0,1,.83-.87c.25-.19.35-.48.79-.46a6.37,6.37,0,0,0,1.69,0,16.87,16.87,0,0,1,2.48,0,8.19,8.19,0,0,0,1,.25c.37.06,1.06.1,1.2.13l1.57.12s1,.33,1,.45.17.64.29.67,1.37.7,1.37.7l1.48.51,1.37,1a.72.72,0,0,0-.21.53,3.33,3.33,0,0,0,.66,1.33c.25.2.79.78.79.78l.95,1.45a11.17,11.17,0,0,0,.29,2,2.24,2.24,0,0,1,.49,1.49c-.1.73.13.39-.16,1.2a7.34,7.34,0,0,0-.21,2.4,3.41,3.41,0,0,1-.41,1c-.17.31.16,1.16,0,1.32a13.76,13.76,0,0,0-1,1.2,15,15,0,0,0-.71,1.33c-.06.16-1.3,1.21-1.4,1.32a9.91,9.91,0,0,0-2.48,1.34c-.77.75-.33.41-.5.68s-1,.35-.91.25.5-1,.66-.93,1-.52,1-.52a11.77,11.77,0,0,0,1.69-.9,7.51,7.51,0,0,0,.33-.87c0-.13.5-.8.62-1.06a16.35,16.35,0,0,1,.75-1.59,15.17,15.17,0,0,0,.82-1.28c.06-.19.39-1.63.42-1.94a6.25,6.25,0,0,0,.12-1.49c-.1-.31-.5-.93-.62-1.41a12.49,12.49,0,0,1-.21-2c0-.12,0-1.14,0-1.14s-.33-.66-.41-.86a4.19,4.19,0,0,0-.62-1,4,4,0,0,1-.5-1.15c0-.17-.33-.81-.37-1s-.27-.51-.49-.49a2.78,2.78,0,0,1-1-.41,22.22,22.22,0,0,0-1.77-1.41c-.11,0-1.41,0-1.41,0s-.62-.66-.83-.66.29,0-.7-.17a7.57,7.57,0,0,0-2.31-.2c-.58.14-1.45.24-1.45.24l-1.36-.24a6.57,6.57,0,0,0-.91.41c-.11.1-.19-.1-1,.21a4.25,4.25,0,0,0-1.57,1.32,11.09,11.09,0,0,0-1,.49c-.12.11-.83.83-.83.83l-1.15.46a4.89,4.89,0,0,1-.17.53,3,3,0,0,1-.41.46Z"/><path class="cls-1" d="M216.26,83.52,215.84,85a4.69,4.69,0,0,0,0,1.19c.11.17.25-.14.19.38a7.23,7.23,0,0,1-.23,1.07,6.7,6.7,0,0,0,.46.62c.18.21-.15.52,0,.79s.1.31.33.74.49.62.49.79.25,1.17.25,1.17a3.66,3.66,0,0,1,.37.48c.29.41.42.29.58.62s.13.91.37,1.11a5.39,5.39,0,0,0,.91.54,3.43,3.43,0,0,1,.62.83c.79.49,1.8.58,1.82.74s.68.71.75.83a9.37,9.37,0,0,0,1.61.45h1.28l.79.38c1.4,0,1.69,0,1.86,0a8.92,8.92,0,0,0,1-.17h.91l.33-.5A1.56,1.56,0,0,0,230,97c-.14,0-1.31,0-1.55,0h-.8a10.39,10.39,0,0,1-1.2,0c-1.24-.06-1.49-.1-2.07-.16a3.13,3.13,0,0,1-.91-.17c-.27-.1,0-.18-.54-.54s-1.2-.72-1.44-1a7.45,7.45,0,0,0-.66-.68c-.81-.79-.77-1.14-1-1.2a2.78,2.78,0,0,1-.74-.29,1.91,1.91,0,0,1-.58-.91c-.08-.33.06-.82-.25-1.11a3,3,0,0,1-.82-1.16,8.7,8.7,0,0,0,.08-.87A10.14,10.14,0,0,0,217,87.4c0-.12-.43-.31-.41-.62a2.74,2.74,0,0,1,.25-.78c0-.15-.46-.89-.25-1s-.15-.75,0-.87.58-.62.58-.62l-.58-.46Z"/><path class="cls-1" d="M214.34,121.23a13.9,13.9,0,0,0-.85-1.13,1.39,1.39,0,0,1-.42-.42c0-.06-.33-.59-.33-.59a.82.82,0,0,0-.22-.29c-.14-.1-.47-.11-.54-.17a3,3,0,0,0-.54-.33,5.09,5.09,0,0,0-.83-.33c-.26,0-.94,0-1.15,0s-1.1,0-1.41-.1a3.6,3.6,0,0,0-1,0l-.58.16s-.51.47-.58.52-.62.54-.62.54.28,0-.29.44-.62.73-.62.73a3.87,3.87,0,0,0-.37.62,4.49,4.49,0,0,1-.27.54l-.18.74s-.14.91-.13,1a1.94,1.94,0,0,1,.15.55,6.52,6.52,0,0,1-.15.65c0,.08.08,0,.13.28a2.86,2.86,0,0,0,.29.83c.05.14.08.4.14.37a9.86,9.86,0,0,1,.76,1.18s.37.24.42.39a.86.86,0,0,0,.37.42c.11,0,.08.11.25.29a2.89,2.89,0,0,0,.76.43c.1,0,1,.1,1,.1s.86.16.93.15a6.48,6.48,0,0,0,1.08,0,10.31,10.31,0,0,0,1.2-.23c.24-.13.39-.25.64-.37l.78-.39s.67-.39.77-.46a4.08,4.08,0,0,0,.45-.49c.07-.09,0-.38.21-.6a2,2,0,0,0,.46-.6,8.6,8.6,0,0,1,.31-1.1,2.25,2.25,0,0,0,.12-.76c0-.07,0-1,0-1l.25.12a3.29,3.29,0,0,1,0,.64,5,5,0,0,0,0,.81s-.21.41-.25.55a4.88,4.88,0,0,0-.06.52c0,.15-.06,0-.23.58s0,.4-.23.68-.63.74-.74.89a2.84,2.84,0,0,1-.46.46c-.09.07-.63.32-.78.41a4.83,4.83,0,0,1-1,.34c-.48.12-.58.19-.93.26a3,3,0,0,1-1,.12c-.83,0-.72-.06-1.11,0a3.52,3.52,0,0,1-1.24-.14,2.82,2.82,0,0,1-.64-.27c-.38-.23-.16,0-.56-.35a6.92,6.92,0,0,1-.66-.68c-.15-.13,0,0-.31-.31a3.3,3.3,0,0,1-.62-.81,4.85,4.85,0,0,0-.29-.54,4.56,4.56,0,0,0-.39-.51,3.29,3.29,0,0,0,0-.89,2.43,2.43,0,0,1-.23-.77,7.74,7.74,0,0,0-.08-.89,10.16,10.16,0,0,1,.12-1s.17-.72.17-.79a3.63,3.63,0,0,1,.29-.8c.05,0,.59-.89.59-.89l.77-.64.17-.54.8-.51,1-.44s1.11,0,1.22,0a7.78,7.78,0,0,1,1.08,0c.15,0,1.09,0,1.17.08s1.28.25,1.31.31.5.32.53.38.61.36.69.41.93,1.07.93,1.07a2.92,2.92,0,0,0,.31.31c.08.07.12.44.12.44l.23.45.14.25Z"/><path class="cls-1" d="M208.82,118.8h-.73a1.54,1.54,0,0,1-.45,0,1.32,1.32,0,0,1-.31.24c-.17.09-.59.2-.64.25s-.39.27-.39.27l-.36.43-.18.36a1.87,1.87,0,0,0-.39.24c-.07.09-.43.51-.48.6a2.92,2.92,0,0,0-.12.35,1.11,1.11,0,0,1,0,.62,3.34,3.34,0,0,0-.21.67s0,0-.1.47a2.36,2.36,0,0,0,0,1c0,.14-.14-.08.06.25s.22.38.27.48a2.85,2.85,0,0,1,.33.53c0,.17.16.21.31.33a1.09,1.09,0,0,1,.31.42c0,.14-.06.16.1.27a2.19,2.19,0,0,1,.52.45c.06.1.2.14.26.27s.33.21.38.25a.43.43,0,0,0,.29.14c.16,0,0-.12.31,0a1.83,1.83,0,0,0,.68.13,4.19,4.19,0,0,0,.7-.09,1,1,0,0,1,.73-.08c.39.13.67.13.78,0s.58-.31.64-.37a2.06,2.06,0,0,0,.15-.47,2.85,2.85,0,0,0-.46.18,1.41,1.41,0,0,1-.47.25,4.22,4.22,0,0,1-.67,0c-.28,0-.06,0-.86,0s-.64,0-.79,0l-.58-.11a1.29,1.29,0,0,1-.43-.29c-.1-.13.44.17-.19-.35s-.4-.43-.63-.53a.76.76,0,0,1-.38-.34,3,3,0,0,0-.37-.62,1.54,1.54,0,0,1-.27-.37,2.46,2.46,0,0,1-.29-.48,1.66,1.66,0,0,1,.12-.52c.08-.12-.13-.44-.12-.64s0-.17,0-.31a1.16,1.16,0,0,1,.27-.64c.15-.11.09-.6.1-.66s.11-.34.23-.39.25-.23.43-.37.11-.21.19-.33-.1-.16.23-.38,0-.2.6-.37a1.18,1.18,0,0,0,.62-.31c.09,0,.25-.06.28-.08l.6-.17a.2.2,0,0,0,.29-.08Z"/><path class="cls-1" d="M252.18,98.66l.58-.84a2.58,2.58,0,0,1,.4,0c.1,0,.27-.23.35-.23a1.69,1.69,0,0,1,.45,0l.34.18v.16a4.26,4.26,0,0,1,.62.35,1.18,1.18,0,0,0,.06.38c.05.09.21.33.28.47s-.25.48-.2.6a1.77,1.77,0,0,1,.13.55,2.85,2.85,0,0,1-.07.71c-.06.15,0,.16,0,.36s0,.4,0,.55-.08-.1-.08.35a4.69,4.69,0,0,1,0,.75c0,.2-.11.76-.11.76l-.31.63s0-.08-.15.18,0,.38-.27.61-.53.58-.68.73a4.53,4.53,0,0,1-.73.45l-.52.11s0,0-.24-.06a1.83,1.83,0,0,1-.44-.23,2.05,2.05,0,0,1-.31-.3,2.27,2.27,0,0,1-.38-.53,2.73,2.73,0,0,1-.25-.82,1.59,1.59,0,0,1,.14-.35l.25,0s-.08.21-.11.26.24.39.24.39c.22.26-.19.18.36.41s.84.34.88.37l.05,0a2,2,0,0,0,.47,0s.32-.3.37-.33.26-.12.31-.23,0-.46.14-.64.44-.44.5-.54,0-.23.09-.28a2.69,2.69,0,0,0,.28-.72c.05-.21.05-.52.08-.67s-.08-.29.06-.64.2-.3.2-.53a4.89,4.89,0,0,0-.07-.73c0-.15,0-.43-.1-.54a6.38,6.38,0,0,1-.29-.81l-.36-.48-.14-.33s.28,0-.19,0a2,2,0,0,0-.63.17,3.25,3.25,0,0,0-.41.26c-.05.06-.15.13-.18.2s-.35.16-.35.16Z"/><path class="cls-1" d="M254.13,99.75l-.1-.16-.35-.59h-.47l-.58.19c-.09,0-.35.21-.35.26s-.1.09-.19.3a3.72,3.72,0,0,1-.51.65.53.53,0,0,1,0,.28,2.38,2.38,0,0,0-.16.66c-.08.56,0,.35-.08.56s-.22.73-.22.73v.42s-.06.44,0,.51a3.36,3.36,0,0,1,.22.62.74.74,0,0,0,0,.22.28.28,0,0,0,.1.22l.29.26.13.11a2.27,2.27,0,0,1,.38.16.38.38,0,0,0,.4,0,1.94,1.94,0,0,0,.2-.22l.11-.14s.31-.28.35-.34a2.19,2.19,0,0,1,.14-.2,3.41,3.41,0,0,0,.24-.35,4.15,4.15,0,0,0,.24-.51s.08-.23,0-.28l-.16-.17-.09.19s0,0-.11.17a1.9,1.9,0,0,0-.2.34,3.79,3.79,0,0,1-.22.36c-.07.14.23.11-.23.26s-.57.2-.57.2a.2.2,0,0,1-.17,0l-.26-.2c-.06,0-.12-.07-.17-.16a2.3,2.3,0,0,1-.05-.63c0-.07-.18-.1-.11-.25s.21-.45.14-.48a.21.21,0,0,1-.12-.22c0-.1.26-.56.29-.66s0-.25,0-.35a3.18,3.18,0,0,1,.08-.33,3.52,3.52,0,0,1,.15-.47,4.13,4.13,0,0,1,.22-.36s.21-.34.24-.37l.43-.33.28-.06s.4.07.4.11a2.09,2.09,0,0,0,.13.23l.08.25,0,.22.24-.06Z"/><path class="cls-1" d="M149.08,68.81a1.31,1.31,0,0,1,0,.85c-.18.42-.82,1.61-.88,1.78s.22-.12-.33.74a7.36,7.36,0,0,1-1.28,1.67c-.19.1.23.11-.59.22s-2,.14-2,.14-.15-.18-.3-.33-.59-1.42-.8-1.65a4.68,4.68,0,0,1-.35-1.59c0-.09.36-1,.36-1l.21-.64s.19-.3.22-.15a5.16,5.16,0,0,0,.44.76v.67l-.11.85.16.46a1.45,1.45,0,0,0,.06.33l.14.28.08.24a2,2,0,0,1,.27.22,1.35,1.35,0,0,0,.39.22,1.56,1.56,0,0,0,.63.25s.43,0,.43,0,.44-.19.5-.28.27-.32.33-.43l.85-1.73a5.08,5.08,0,0,0,.32-.8,5.55,5.55,0,0,1,.17-.68l.68-1.7.52-1.53a1.92,1.92,0,0,1-.3-.74c-.12-.55-.19-1-.22-1.23a4.85,4.85,0,0,0-.16-.66,5.43,5.43,0,0,1-.3-.63,3.83,3.83,0,0,0-.3-.53.59.59,0,0,0-.44-.21c-.25,0-2,.41-2,.41l-.38.3-.33,0-.38-.38.11-.5.71-.68.89-.73.49-.3c.06,0,1.11,0,1.11,0l.47.48s.45.6.47.55a6.42,6.42,0,0,1,.51.77l.25.95a10.29,10.29,0,0,1,.22,1.37,6,6,0,0,0,0,.85,6.7,6.7,0,0,1,.19.66c.06.3.1-.07,0,.71s0,.66-.11,1.07-.3,1-.3,1.07S149.08,68.81,149.08,68.81Z"/><path class="cls-1" d="M148,64a2.9,2.9,0,0,0-.38-.45l-.44-.2h-.4l-.3.11s-.25.3-.32.37-.16.21-.27.33-.3.45-.35.52,0,0-.16.21a2.16,2.16,0,0,0-.4.49,2.53,2.53,0,0,0-.17.44,7.85,7.85,0,0,0-.18.92c-.06.31-.06,1-.12,1.13s-.21,1.28-.21,1.28-.07.55-.1.75a2.82,2.82,0,0,0,0,.87,3.94,3.94,0,0,0,.12.63c.06.15.16.5.21.59s.11.32.23.41.08.15.31.19a1.9,1.9,0,0,0,.45,0,3.43,3.43,0,0,0,.57-.39c.05-.08.6-.62.67-.73s.63-1.38.63-1.38,0-.23-.05-.23-.23.2-.23.2a.87.87,0,0,0-.1.21c-.06.15-.42.8-.42.8a.27.27,0,0,1-.09.17,4.67,4.67,0,0,0-.34.39c0,.06-.07.08-.16.17a.79.79,0,0,1-.34.19.85.85,0,0,1-.22.06.51.51,0,0,1-.25-.06,2.52,2.52,0,0,1-.24-.15c-.07-.05,0,.08-.07-.05a2.6,2.6,0,0,1-.23-.3,4.89,4.89,0,0,1-.09-.77c0-.32,0-.53,0-.73a5.81,5.81,0,0,1,.07-1,3.94,3.94,0,0,0,.21-.7,4.28,4.28,0,0,1,.16-.73c.07-.18.12-.47.19-.65a1.67,1.67,0,0,0,0-.56c0-.09-.07-.17,0-.31a6.77,6.77,0,0,1,.53-.74c.05-.06.33-.48.37-.55a1,1,0,0,0,.07-.3s.29-.23.29-.23l.21-.33.3-.1.4.19.21.64s.06.5.08.63a2.53,2.53,0,0,0,.21.6c.05,0,.14-.25.14-.25a.12.12,0,0,1,0-.16,1.4,1.4,0,0,0,.11-.64,2.12,2.12,0,0,1-.07-.32S148,64,148,64Z"/><circle class="cls-1" cx="416.2" cy="90.07" r="8.91"/></g></svg>